<mxfile host="app.diagrams.net" modified="2024-03-10T17:39:00.263Z" agent="Mozilla/5.0 (Macintosh; Intel Mac OS X 10_15_7) AppleWebKit/537.36 (KHTML, like Gecko) Chrome/122.0.0.0 Safari/537.36" etag="uMZ-Lfn_QHecT-Qe70dd" version="24.0.2" type="google">
  <diagram id="hw-eJCP73C49be4wNZF_" name="Services Architecture">
    <mxGraphModel grid="1" page="1" gridSize="10" guides="1" tooltips="1" connect="1" arrows="1" fold="1" pageScale="1" pageWidth="850" pageHeight="1100" math="0" shadow="0">
      <root>
        <mxCell id="0" />
        <mxCell id="1" parent="0" />
        <mxCell id="Qre1MClEdaI6iujTuyEs-35" value="" style="edgeStyle=orthogonalEdgeStyle;rounded=0;orthogonalLoop=1;jettySize=auto;html=1;" edge="1" parent="1" source="Qre1MClEdaI6iujTuyEs-29" target="Qre1MClEdaI6iujTuyEs-30">
          <mxGeometry relative="1" as="geometry" />
        </mxCell>
        <mxCell id="Qre1MClEdaI6iujTuyEs-29" value="" style="ellipse;whiteSpace=wrap;html=1;" vertex="1" parent="1">
          <mxGeometry x="330" y="520" width="430" height="120" as="geometry" />
        </mxCell>
        <mxCell id="RAbqzlOOIe0iMIuwiZTB-1" value="&lt;h1&gt;Services Architecture (Processes)&lt;/h1&gt;" style="text;html=1;strokeColor=none;fillColor=none;spacing=5;spacingTop=-20;whiteSpace=wrap;overflow=hidden;rounded=0;" vertex="1" parent="1">
          <mxGeometry x="330" y="30" width="190" height="120" as="geometry" />
        </mxCell>
        <mxCell id="Qre1MClEdaI6iujTuyEs-3" value="" style="edgeStyle=orthogonalEdgeStyle;rounded=0;orthogonalLoop=1;jettySize=auto;html=1;" edge="1" parent="1" source="RAbqzlOOIe0iMIuwiZTB-2" target="Qre1MClEdaI6iujTuyEs-2">
          <mxGeometry relative="1" as="geometry" />
        </mxCell>
        <mxCell id="RAbqzlOOIe0iMIuwiZTB-2" value="Client" style="rounded=1;whiteSpace=wrap;html=1;" vertex="1" parent="1">
          <mxGeometry x="80" y="200" width="120" height="40" as="geometry" />
        </mxCell>
        <mxCell id="Qre1MClEdaI6iujTuyEs-10" style="edgeStyle=orthogonalEdgeStyle;rounded=0;orthogonalLoop=1;jettySize=auto;html=1;entryX=1;entryY=0.5;entryDx=0;entryDy=0;" edge="1" parent="1" source="Qre1MClEdaI6iujTuyEs-1" target="Qre1MClEdaI6iujTuyEs-6">
          <mxGeometry relative="1" as="geometry" />
        </mxCell>
        <mxCell id="Qre1MClEdaI6iujTuyEs-11" value="Create" style="edgeLabel;html=1;align=center;verticalAlign=middle;resizable=0;points=[];" connectable="0" vertex="1" parent="Qre1MClEdaI6iujTuyEs-10">
          <mxGeometry x="-0.0221" y="1" relative="1" as="geometry">
            <mxPoint as="offset" />
          </mxGeometry>
        </mxCell>
        <mxCell id="Qre1MClEdaI6iujTuyEs-1" value="Postgres (Postmaster)" style="rounded=1;whiteSpace=wrap;html=1;" vertex="1" parent="1">
          <mxGeometry x="330" y="320" width="120" height="40" as="geometry" />
        </mxCell>
        <mxCell id="Qre1MClEdaI6iujTuyEs-5" style="edgeStyle=orthogonalEdgeStyle;rounded=0;orthogonalLoop=1;jettySize=auto;html=1;entryX=0.5;entryY=0;entryDx=0;entryDy=0;" edge="1" parent="1" source="Qre1MClEdaI6iujTuyEs-2" target="Qre1MClEdaI6iujTuyEs-1">
          <mxGeometry relative="1" as="geometry">
            <Array as="points">
              <mxPoint x="390" y="300" />
            </Array>
          </mxGeometry>
        </mxCell>
        <mxCell id="Qre1MClEdaI6iujTuyEs-8" value="Auth" style="edgeLabel;html=1;align=center;verticalAlign=middle;resizable=0;points=[];" connectable="0" vertex="1" parent="Qre1MClEdaI6iujTuyEs-5">
          <mxGeometry x="-0.2629" relative="1" as="geometry">
            <mxPoint as="offset" />
          </mxGeometry>
        </mxCell>
        <mxCell id="Qre1MClEdaI6iujTuyEs-7" style="edgeStyle=orthogonalEdgeStyle;rounded=0;orthogonalLoop=1;jettySize=auto;html=1;entryX=0.5;entryY=0;entryDx=0;entryDy=0;" edge="1" parent="1" target="Qre1MClEdaI6iujTuyEs-6">
          <mxGeometry relative="1" as="geometry">
            <mxPoint x="140" y="320" as="sourcePoint" />
          </mxGeometry>
        </mxCell>
        <mxCell id="Qre1MClEdaI6iujTuyEs-9" value="Normal" style="edgeLabel;html=1;align=center;verticalAlign=middle;resizable=0;points=[];" connectable="0" vertex="1" parent="Qre1MClEdaI6iujTuyEs-7">
          <mxGeometry x="-0.135" y="-2" relative="1" as="geometry">
            <mxPoint as="offset" />
          </mxGeometry>
        </mxCell>
        <mxCell id="Qre1MClEdaI6iujTuyEs-2" value="Client Driver (Mostly wraps libpg)" style="rounded=1;whiteSpace=wrap;html=1;" vertex="1" parent="1">
          <mxGeometry x="80" y="280" width="120" height="40" as="geometry" />
        </mxCell>
        <mxCell id="Qre1MClEdaI6iujTuyEs-13" style="edgeStyle=orthogonalEdgeStyle;rounded=0;orthogonalLoop=1;jettySize=auto;html=1;" edge="1" parent="1" source="Qre1MClEdaI6iujTuyEs-6" target="Qre1MClEdaI6iujTuyEs-2">
          <mxGeometry relative="1" as="geometry" />
        </mxCell>
        <mxCell id="Qre1MClEdaI6iujTuyEs-31" style="edgeStyle=orthogonalEdgeStyle;rounded=0;orthogonalLoop=1;jettySize=auto;html=1;entryX=0;entryY=0.5;entryDx=0;entryDy=0;" edge="1" parent="1" source="Qre1MClEdaI6iujTuyEs-6" target="Qre1MClEdaI6iujTuyEs-30">
          <mxGeometry relative="1" as="geometry" />
        </mxCell>
        <mxCell id="Uv8eMsumU_d35MKu5RMs-1" value="Regular" style="edgeLabel;html=1;align=center;verticalAlign=middle;resizable=0;points=[];" connectable="0" vertex="1" parent="Qre1MClEdaI6iujTuyEs-31">
          <mxGeometry x="-0.0569" y="-1" relative="1" as="geometry">
            <mxPoint as="offset" />
          </mxGeometry>
        </mxCell>
        <mxCell id="Qre1MClEdaI6iujTuyEs-32" style="edgeStyle=orthogonalEdgeStyle;rounded=0;orthogonalLoop=1;jettySize=auto;html=1;entryX=0;entryY=0;entryDx=0;entryDy=0;" edge="1" parent="1" source="Qre1MClEdaI6iujTuyEs-6" target="Qre1MClEdaI6iujTuyEs-29">
          <mxGeometry relative="1" as="geometry">
            <Array as="points">
              <mxPoint x="140" y="540" />
              <mxPoint x="253" y="540" />
            </Array>
          </mxGeometry>
        </mxCell>
        <mxCell id="Qre1MClEdaI6iujTuyEs-34" value="Parallel" style="edgeLabel;html=1;align=center;verticalAlign=middle;resizable=0;points=[];" connectable="0" vertex="1" parent="Qre1MClEdaI6iujTuyEs-32">
          <mxGeometry x="0.0073" relative="1" as="geometry">
            <mxPoint as="offset" />
          </mxGeometry>
        </mxCell>
        <mxCell id="Qre1MClEdaI6iujTuyEs-48" style="edgeStyle=orthogonalEdgeStyle;rounded=0;orthogonalLoop=1;jettySize=auto;html=1;dashed=1;" edge="1" parent="1" source="Qre1MClEdaI6iujTuyEs-6">
          <mxGeometry relative="1" as="geometry">
            <mxPoint x="470" y="850" as="targetPoint" />
            <Array as="points">
              <mxPoint x="170" y="850" />
            </Array>
          </mxGeometry>
        </mxCell>
        <mxCell id="Qre1MClEdaI6iujTuyEs-6" value="Single Backend (per connection)" style="rounded=1;whiteSpace=wrap;html=1;" vertex="1" parent="1">
          <mxGeometry x="80" y="480" width="120" height="40" as="geometry" />
        </mxCell>
        <mxCell id="Qre1MClEdaI6iujTuyEs-20" value="Background Process" style="rounded=0;whiteSpace=wrap;html=1;" vertex="1" parent="1">
          <mxGeometry x="380" y="570" width="80" height="40" as="geometry" />
        </mxCell>
        <mxCell id="Qre1MClEdaI6iujTuyEs-22" value="Background Process" style="rounded=0;whiteSpace=wrap;html=1;" vertex="1" parent="1">
          <mxGeometry x="500" y="570" width="80" height="40" as="geometry" />
        </mxCell>
        <mxCell id="Qre1MClEdaI6iujTuyEs-23" value="Background Process" style="rounded=0;whiteSpace=wrap;html=1;" vertex="1" parent="1">
          <mxGeometry x="620" y="570" width="80" height="40" as="geometry" />
        </mxCell>
        <mxCell id="Qre1MClEdaI6iujTuyEs-25" value="Background Process Pool" style="text;html=1;align=center;verticalAlign=middle;resizable=0;points=[];autosize=1;strokeColor=none;fillColor=none;" vertex="1" parent="1">
          <mxGeometry x="460" y="530" width="160" height="30" as="geometry" />
        </mxCell>
        <mxCell id="Qre1MClEdaI6iujTuyEs-42" value="" style="edgeStyle=orthogonalEdgeStyle;rounded=0;orthogonalLoop=1;jettySize=auto;html=1;" edge="1" parent="1" source="Qre1MClEdaI6iujTuyEs-30" target="Qre1MClEdaI6iujTuyEs-36">
          <mxGeometry relative="1" as="geometry">
            <Array as="points">
              <mxPoint x="320" y="870" />
              <mxPoint x="320" y="870" />
            </Array>
          </mxGeometry>
        </mxCell>
        <mxCell id="Qre1MClEdaI6iujTuyEs-30" value="Shared Memory" style="ellipse;whiteSpace=wrap;html=1;" vertex="1" parent="1">
          <mxGeometry x="190" y="720" width="430" height="120" as="geometry" />
        </mxCell>
        <mxCell id="Qre1MClEdaI6iujTuyEs-43" value="" style="edgeStyle=orthogonalEdgeStyle;rounded=0;orthogonalLoop=1;jettySize=auto;html=1;" edge="1" parent="1" source="Qre1MClEdaI6iujTuyEs-36" target="Qre1MClEdaI6iujTuyEs-30">
          <mxGeometry relative="1" as="geometry">
            <Array as="points">
              <mxPoint x="470" y="880" />
              <mxPoint x="470" y="880" />
            </Array>
          </mxGeometry>
        </mxCell>
        <mxCell id="Qre1MClEdaI6iujTuyEs-49" value="" style="edgeStyle=orthogonalEdgeStyle;rounded=0;orthogonalLoop=1;jettySize=auto;html=1;" edge="1" parent="1" source="Qre1MClEdaI6iujTuyEs-36" target="Qre1MClEdaI6iujTuyEs-37">
          <mxGeometry relative="1" as="geometry">
            <Array as="points">
              <mxPoint x="320" y="1040" />
              <mxPoint x="320" y="1040" />
            </Array>
          </mxGeometry>
        </mxCell>
        <mxCell id="Qre1MClEdaI6iujTuyEs-36" value="File System Cache" style="ellipse;whiteSpace=wrap;html=1;" vertex="1" parent="1">
          <mxGeometry x="190" y="960" width="430" height="120" as="geometry" />
        </mxCell>
        <mxCell id="Qre1MClEdaI6iujTuyEs-50" value="" style="edgeStyle=orthogonalEdgeStyle;rounded=0;orthogonalLoop=1;jettySize=auto;html=1;" edge="1" parent="1" source="Qre1MClEdaI6iujTuyEs-37" target="Qre1MClEdaI6iujTuyEs-36">
          <mxGeometry relative="1" as="geometry">
            <Array as="points">
              <mxPoint x="330" y="1130" />
              <mxPoint x="330" y="1130" />
            </Array>
          </mxGeometry>
        </mxCell>
        <mxCell id="Qre1MClEdaI6iujTuyEs-37" value="File System Disk" style="ellipse;whiteSpace=wrap;html=1;" vertex="1" parent="1">
          <mxGeometry x="190" y="1150" width="430" height="120" as="geometry" />
        </mxCell>
        <mxCell id="Qre1MClEdaI6iujTuyEs-44" style="edgeStyle=orthogonalEdgeStyle;rounded=0;orthogonalLoop=1;jettySize=auto;html=1;dashed=1;" edge="1" parent="1" source="Qre1MClEdaI6iujTuyEs-38">
          <mxGeometry relative="1" as="geometry">
            <mxPoint x="320" y="860" as="targetPoint" />
            <Array as="points">
              <mxPoint x="-40" y="860" />
            </Array>
          </mxGeometry>
        </mxCell>
        <mxCell id="Qre1MClEdaI6iujTuyEs-38" value="Background Writer" style="rounded=0;whiteSpace=wrap;html=1;" vertex="1" parent="1">
          <mxGeometry x="-100" y="800" width="120" height="40" as="geometry" />
        </mxCell>
        <mxCell id="Qre1MClEdaI6iujTuyEs-56" style="edgeStyle=orthogonalEdgeStyle;rounded=0;orthogonalLoop=1;jettySize=auto;html=1;dashed=1;" edge="1" parent="1" source="Qre1MClEdaI6iujTuyEs-52">
          <mxGeometry relative="1" as="geometry">
            <mxPoint x="320" y="900" as="targetPoint" />
          </mxGeometry>
        </mxCell>
        <mxCell id="Qre1MClEdaI6iujTuyEs-52" value="Check Pointer" style="rounded=0;whiteSpace=wrap;html=1;" vertex="1" parent="1">
          <mxGeometry x="-100" y="880" width="120" height="40" as="geometry" />
        </mxCell>
        <mxCell id="Qre1MClEdaI6iujTuyEs-57" style="edgeStyle=orthogonalEdgeStyle;rounded=0;orthogonalLoop=1;jettySize=auto;html=1;entryX=1;entryY=0.5;entryDx=0;entryDy=0;" edge="1" parent="1" source="Qre1MClEdaI6iujTuyEs-53" target="Qre1MClEdaI6iujTuyEs-30">
          <mxGeometry relative="1" as="geometry" />
        </mxCell>
        <mxCell id="Qre1MClEdaI6iujTuyEs-58" style="edgeStyle=orthogonalEdgeStyle;rounded=0;orthogonalLoop=1;jettySize=auto;html=1;entryX=1;entryY=0.5;entryDx=0;entryDy=0;" edge="1" parent="1" source="Qre1MClEdaI6iujTuyEs-53" target="Qre1MClEdaI6iujTuyEs-36">
          <mxGeometry relative="1" as="geometry" />
        </mxCell>
        <mxCell id="Qre1MClEdaI6iujTuyEs-53" value="Auto VACUUM Launcher" style="rounded=0;whiteSpace=wrap;html=1;" vertex="1" parent="1">
          <mxGeometry x="680" y="880" width="120" height="40" as="geometry" />
        </mxCell>
        <mxCell id="Qre1MClEdaI6iujTuyEs-55" style="edgeStyle=orthogonalEdgeStyle;rounded=0;orthogonalLoop=1;jettySize=auto;html=1;dashed=1;" edge="1" parent="1" source="Qre1MClEdaI6iujTuyEs-54">
          <mxGeometry relative="1" as="geometry">
            <mxPoint x="320" y="940" as="targetPoint" />
            <Array as="points">
              <mxPoint x="140" y="1060" />
              <mxPoint x="140" y="940" />
            </Array>
          </mxGeometry>
        </mxCell>
        <mxCell id="Qre1MClEdaI6iujTuyEs-59" style="edgeStyle=orthogonalEdgeStyle;rounded=0;orthogonalLoop=1;jettySize=auto;html=1;dashed=1;" edge="1" parent="1" source="Qre1MClEdaI6iujTuyEs-54">
          <mxGeometry relative="1" as="geometry">
            <mxPoint x="330" y="1110" as="targetPoint" />
            <Array as="points">
              <mxPoint x="-40" y="1110" />
              <mxPoint x="330" y="1110" />
            </Array>
          </mxGeometry>
        </mxCell>
        <mxCell id="Qre1MClEdaI6iujTuyEs-54" value="WAL Writer" style="rounded=0;whiteSpace=wrap;html=1;" vertex="1" parent="1">
          <mxGeometry x="-100" y="1040" width="120" height="40" as="geometry" />
        </mxCell>
      </root>
    </mxGraphModel>
  </diagram>
</mxfile>
